# xmcd CD database file
# Copyright (C) 1993-1998 Ti Kan
#
# Track frame offsets:
#  150
#  11172
#  19972
#  30427
#  40852
#  56507
#  72977
#  85280
#  98377
#  104229
#  115842
#  127900
#
# Disc length: 1827 seconds
#
# Revision: 1
# Processed by: cddbd v1.4b41PL1 Copyright (c) Steve Scherf et al.
# Submitted via: CDWizzard Release:4.35
#
DISCID=9707210c
DTITLE=Jesse Winchester - Learn To Love It
DYEAR=1900
DGENRE=
TTITLE0=Wake Me
TTITLE1=Every Word You Say
TTITLE2=How Far To The Horizon?
TTITLE3=L'Air De La Louisiane
TTITLE4=Mississippi You're On My Mind
TTITLE5=Third Rate Romance
TTITLE6=Defying Gravity
TTITLE7=Tell Me Why You Like Roosevelt
TTITLE8=Pharaoh's Army
TTITLE9=Laisse Les Bons Temps Rouler
TTITLE10=The End Is Not In Site
TTITLE11=I Can't Stand Up Alone
EXTD=
EXTT0=
EXTT1=
EXTT2=
EXTT3=
EXTT4=
EXTT5=
EXTT6=
EXTT7=
EXTT8=
EXTT9=
EXTT10=
EXTT11=
PLAYORDER=
